# xmcd CD database file
#
# Track frame offsets:
#	150
#	14555
#	31742
#	50717
#
# Disc length: 1032 seconds
#
# Revision: 0
# Processed by: cddbd v1.5PL3 Copyright (c) Steve Scherf et al.
# Submitted via: CDex 1.51
#
DISCID=2c040604
DTITLE=Christine Anu - Sunshine on a rainy day 
DYEAR=2001
DGENRE=Blues
TTITLE0=Sunshine on a rainy day (Original Radio Mix)
TTITLE1=Sunshine on a rainy day (Radio Mix)
TTITLE2=Sunshine on a rainy day (Wicked beat sound system Mix)
TTITLE3=Sunshine on a rainy day (Scotia Nostre Mix)
EXTD=YEAR: 2001
EXTT0=
EXTT1=
EXTT2=
EXTT3=
PLAYORDER=
